<svg width="245" height="65" viewBox="0 0 245 65" fill="none" xmlns="http://www.w3.org/2000/svg">
<rect width="245" height="65" fill="url(#paint0_linear)" fill-opacity="0.25"/>
<path d="M95.9345 46.36C94.0145 46.36 92.5625 45.82 91.5785 44.74C90.5945 43.636 90.1025 42.064 90.1025 40.024V38.584H93.8465V40.312C93.8465 41.944 94.5305 42.76 95.8985 42.76C96.5705 42.76 97.0745 42.568 97.4105 42.184C97.7705 41.776 97.9505 41.128 97.9505 40.24C97.9505 39.184 97.7105 38.26 97.2305 37.468C96.7505 36.652 95.8625 35.68 94.5665 34.552C92.9345 33.112 91.7945 31.816 91.1465 30.664C90.4985 29.488 90.1745 28.168 90.1745 26.704C90.1745 24.712 90.6785 23.176 91.6865 22.096C92.6945 20.992 94.1585 20.44 96.0785 20.44C97.9745 20.44 99.4025 20.992 100.363 22.096C101.347 23.176 101.839 24.736 101.839 26.776V27.82H98.0945V26.524C98.0945 25.66 97.9265 25.036 97.5905 24.652C97.2545 24.244 96.7625 24.04 96.1145 24.04C94.7945 24.04 94.1345 24.844 94.1345 26.452C94.1345 27.364 94.3745 28.216 94.8545 29.008C95.3585 29.8 96.2585 30.76 97.5545 31.888C99.2105 33.328 100.351 34.636 100.975 35.812C101.599 36.988 101.911 38.368 101.911 39.952C101.911 42.016 101.395 43.6 100.363 44.704C99.3545 45.808 97.8785 46.36 95.9345 46.36ZM107.277 24.4H103.137V20.8H115.377V24.4H111.237V46H107.277V24.4ZM122.878 46.36C120.934 46.36 119.446 45.808 118.414 44.704C117.382 43.6 116.866 42.04 116.866 40.024V26.776C116.866 24.76 117.382 23.2 118.414 22.096C119.446 20.992 120.934 20.44 122.878 20.44C124.822 20.44 126.31 20.992 127.342 22.096C128.374 23.2 128.89 24.76 128.89 26.776V40.024C128.89 42.04 128.374 43.6 127.342 44.704C126.31 45.808 124.822 46.36 122.878 46.36ZM122.878 42.76C124.246 42.76 124.93 41.932 124.93 40.276V26.524C124.93 24.868 124.246 24.04 122.878 24.04C121.51 24.04 120.826 24.868 120.826 26.524V40.276C120.826 41.932 121.51 42.76 122.878 42.76ZM131.568 20.8H137.436C139.476 20.8 140.964 21.28 141.9 22.24C142.836 23.176 143.304 24.628 143.304 26.596V28.144C143.304 30.76 142.44 32.416 140.712 33.112V33.184C141.672 33.472 142.344 34.06 142.728 34.948C143.136 35.836 143.34 37.024 143.34 38.512V42.94C143.34 43.66 143.364 44.248 143.412 44.704C143.46 45.136 143.58 45.568 143.772 46H139.74C139.596 45.592 139.5 45.208 139.452 44.848C139.404 44.488 139.38 43.84 139.38 42.904V38.296C139.38 37.144 139.188 36.34 138.804 35.884C138.444 35.428 137.808 35.2 136.896 35.2H135.528V46H131.568V20.8ZM136.968 31.6C137.76 31.6 138.348 31.396 138.732 30.988C139.14 30.58 139.344 29.896 139.344 28.936V26.992C139.344 26.08 139.176 25.42 138.84 25.012C138.528 24.604 138.024 24.4 137.328 24.4H135.528V31.6H136.968ZM146.087 20.8H156.887V24.4H150.047V31.06H155.483V34.66H150.047V42.4H156.887V46H146.087V20.8Z" fill="#333333"/>
<defs>
<linearGradient id="paint0_linear" x1="1.78479e-06" y1="7" x2="258" y2="65" gradientUnits="userSpaceOnUse">
<stop stop-color="#6C63FF"/>
<stop offset="1" stop-color="#6C63FF" stop-opacity="0"/>
</linearGradient>
</defs>
</svg>
